#!OML:ASF E:\Style4\Style4.ASF
:FULLY-SPECIFIED
:DEGREES
2242
root -0.285091 17.9887 -1.62197 0.103696 -0.97341 1.64213
lowerback 2.91712 2.25717 0.424251
upperback -0.934551 3.02688 -0.0225146
thorax -2.56979 1.50255 -0.414092
lowerneck -4.1416 -5.20519 -6.98402
upperneck 17.7883 -7.04727 3.82826
head 6.46964 -3.58329 1.87876
rclavicle -1.16724e-014 -5.1684e-015
rhumerus 47.7703 4.8235 -55.3246
rradius 70.3357
rwrist -48.4975
rhand -28.4974 9.52296
rfingers 7.12502
rthumb -1.86629 -20.4486
lclavicle -1.16724e-014 -5.1684e-015
lhumerus 50.1783 -12.9858 57.3912
lradius 77.68
lwrist 56.5686
lhand -18.535 38.424
lfingers 7.12502
lthumb 7.754 68.2618
rfemur -7.76893 2.63799 17.816
rtibia 25.1352
rfoot -15.9494 -16.1953
rtoes -13.0919
lfemur -4.8886 -4.57353 -20.1141
ltibia 21.5908
lfoot -16.7258 11.1365
ltoes -15.9501
2243
root -0.283963 17.9934 -1.61437 0.113824 -0.977384 1.642
lowerback 2.79786 2.27376 0.42428
upperback -0.884187 3.04862 -0.00451237
thorax -2.45178 1.5142 -0.390045
lowerneck -4.0824 -5.21916 -6.94024
upperneck 17.6136 -7.06224 3.78685
head 6.40147 -3.59107 1.86005
rclavicle -1.16941e-014 1.59028e-015
rhumerus 46.4081 5.13826 -55.5982
rradius 72.1785
rwrist -48.1496
rhand -28.8012 9.62125
rfingers 7.12502
rthumb -2.1597 -20.3476
lclavicle -1.16941e-014 1.59028e-015
lhumerus 48.8396 -13.3957 57.7008
lradius 79.5571
lwrist 56.691
lhand -18.6489 38.0683
lfingers 7.12502
lthumb 7.64408 67.9101
rfemur -7.64471 2.60052 17.8137
rtibia 25.0601
rfoot -16.0558 -15.9469
rtoes -11.9842
lfemur -4.80413 -4.60348 -20.1251
ltibia 21.469
lfoot -16.6921 11.1936
ltoes -16.1416
2244
root -0.283281 17.996 -1.60745 0.142658 -0.980425 1.70652
lowerback 2.7057 2.26884 0.356494
upperback -0.872084 3.03903 -0.00591888
thorax -2.39109 1.51076 -0.348833
lowerneck -3.99334 -5.19993 -6.90455
upperneck 17.4759 -7.03802 3.76804
head 6.33872 -3.57935 1.85357
rclavicle 5.33954e-014 -2.38542e-015
rhumerus 44.9884 5.55815 -55.9338
rradius 74.0783
rwrist -47.7148
rhand -29.0709 9.56958
rfingers 7.12502
rthumb -2.42014 -20.3964
lclavicle 5.33954e-014 -2.38542e-015
lhumerus 47.314 -13.8913 58.0734
lradius 81.5271
lwrist 56.5601
lhand -19.0589 37.679
lfingers 7.12502
lthumb 7.24833 67.5348
rfemur -7.59848 2.59675 17.7414
rtibia 24.9776
rfoot -16.1127 -15.9289
rtoes -12.1158
lfemur -4.74178 -4.6291 -20.1958
ltibia 21.3477
lfoot -16.6983 11.1777
ltoes -15.7218
2245
root -0.283852 17.9961 -1.60095 0.142461 -0.956756 1.70647
lowerback 2.6824 2.23738 0.334446
upperback -0.857403 2.99665 0.0172289
thorax -2.36558 1.49024 -0.309481
lowerneck -4.00271 -5.17214 -6.92407
upperneck 17.3986 -6.99641 3.77543
head 6.31437 -3.55967 1.86254
rclavicle -1.9102e-015 -1.59028e-015
rhumerus 43.5067 6.03152 -56.3187
rradius 76.0807
rwrist -47.3673
rhand -29.1426 9.62969
rfingers 7.12502
rthumb -2.48945 -20.3355
lclavicle -1.9102e-015 -1.59028e-015
lhumerus 45.706 -14.3953 58.4032
lradius 83.4879
lwrist 56.3471
lhand -19.3214 37.3651
lfingers 7.12502
lthumb 6.99492 67.2295
rfemur -7.57946 2.65106 17.7463
rtibia 24.8878
rfoot -15.9978 -16.1988
rtoes -13.2585
lfemur -4.64863 -4.6531 -20.1962
ltibia 21.2126
lfoot -16.6722 11.1917
ltoes -15.754
2246
root -0.285092 17.9967 -1.59412 0.159112 -0.934017 1.7065
lowerback 2.67424 2.22264 0.322205
upperback -0.87368 2.97665 0.0204354
thorax -2.37864 1.48041 -0.298536
lowerneck -4.0971 -5.16927 -7.02329
upperneck 17.478 -6.99502 3.87133
head 6.36291 -3.55733 1.90608
rclavicle -8.26199e-016 4.37326e-015
rhumerus 41.8757 6.49821 -56.7506
rradius 78.0858
rwrist -47.0448
rhand -29.1851 9.94367
rfingers 7.12502
rthumb -2.53046 -20.0211
lclavicle -8.26199e-016 4.37326e-015
lhumerus 44.0335 -14.9807 58.6767
lradius 85.4843
lwrist 55.9992
lhand -19.188 37.1368
lfingers 7.12502
lthumb 7.12369 66.9969
rfemur -7.55891 2.7589 17.7559
rtibia 24.7969
rfoot -15.9526 -16.369
rtoes -13.5839
lfemur -4.57841 -4.6687 -20.1905
ltibia 21.089
lfoot -16.6991 11.169
ltoes -15.4322
2247
root -0.286409 17.9971 -1.58906 0.128066 -0.9218 1.73895
lowerback 2.73449 2.21916 0.280901
upperback -0.871638 2.97072 0.0198705
thorax -2.41249 1.47791 -0.278408
lowerneck -4.1762 -5.16632 -7.21535
upperneck 17.5071 -6.98981 4.00659
head 6.39756 -3.55619 1.97826
rclavicle 3.50544e-014 4.37326e-015
rhumerus 40.1227 6.98441 -57.1596
rradius 80.1598
rwrist -46.6557
rhand -29.2245 10.2715
rfingers 7.12502
rthumb -2.5685 -19.6928
lclavicle 3.50544e-014 4.37326e-015
lhumerus 42.2756 -15.5928 58.9843
lradius 87.4845
lwrist 55.54
lhand -18.9484 36.657
lfingers 7.12502
lthumb 7.35498 66.5091
rfemur -7.46962 2.82463 17.7359
rtibia 24.7114
rfoot -15.9201 -16.4282
rtoes -13.6708
lfemur -4.47482 -4.69543 -20.226
ltibia 20.9823
lfoot -16.709 11.1615
ltoes -15.2033
